<svg width="12" height="7" viewBox="0 0 12 7" version="1.1" xmlns="http://www.w3.org/2000/svg" xmlns:xlink="http://www.w3.org/1999/xlink">
<g transform="translate(-1359 -949)">
<path fill="#03A9F4" transform="matrix(-0.707107 0.707107 -0.707107 -0.707107 1370.72 950)" d="M 7.45589 0C 7.91342 -2.80157e-17 8.28433 0.370902 8.28433 0.828432L 8.28433 7.45589C 8.28433 7.91342 7.91342 8.28433 7.45589 8.28433C 6.99836 8.28433 6.62746 7.91342 6.62746 7.45589L 6.62746 0.828432C 6.62746 0.370902 6.99836 2.80157e-17 7.45589 0Z"/>
<path fill="#03A9F4" transform="matrix(-0.707107 0.707107 -0.707107 -0.707107 1370.72 950)" d="M 0 0.828432C 0 0.370902 0.370902 0 0.828432 0L 7.45589 0C 7.91342 -2.80157e-17 8.28433 0.370902 8.28433 0.828432C 8.28433 1.28596 7.91342 1.65687 7.45589 1.65687L 0.828432 1.65687C 0.370902 1.65687 0 1.28596 0 0.828432Z"/>
</g>
</svg>
