<svg width="11" height="9" viewBox="0 0 11 9" version="1.1" xmlns="http://www.w3.org/2000/svg" xmlns:xlink="http://www.w3.org/1999/xlink">
<g transform="translate(-2540 -946)">
<path transform="translate(2540 946.1)" d="M 1.09774 0L 9.8797 0C 10.1708 4.88498e-16 10.4501 0.115892 10.6559 0.322183C 10.8618 0.528472 10.9774 0.808262 10.9774 1.1L 10.9774 7.7C 10.9774 7.99174 10.8618 8.27153 10.6559 8.47782C 10.4501 8.68411 10.1708 8.8 9.8797 8.8L 1.09774 8.8C 0.488496 8.8 0 8.305 0 7.7L 0 1.1C 0 0.4895 0.488496 0 1.09774 0ZM 5.48872 3.85L 9.8797 1.1L 1.09774 1.1L 5.48872 3.85ZM 1.09774 7.7L 9.8797 7.7L 9.8797 2.4035L 5.48872 5.148L 1.09774 2.4035L 1.09774 7.7Z"/>
</g>
</svg>
