<svg width="13" height="13" viewBox="0 0 13 13" version="1.1" xmlns="http://www.w3.org/2000/svg" xmlns:xlink="http://www.w3.org/1999/xlink">
<g transform="translate(-2593 64)">
<path transform="translate(2593 -64)" d="M 8.50802 5.25802L 11.9167 1.84938L 11.9167 3.25C 11.9167 3.54915 12.1592 3.79166 12.4583 3.79166C 12.7575 3.79166 13 3.54915 13 3.25L 13 0.541709C 13 0.523859 12.9991 0.50601 12.9973 0.488211C 12.9965 0.480188 12.995 0.472418 12.9939 0.464521C 12.9925 0.454949 12.9914 0.445352 12.9895 0.43583C 12.9877 0.42674 12.9852 0.41793 12.983 0.409018C 12.9809 0.400816 12.9791 0.392564 12.9766 0.384439C 12.974 0.37568 12.9707 0.367225 12.9676 0.358668C 12.9647 0.350568 12.962 0.342393 12.9587 0.334395C 12.9554 0.326396 12.9515 0.318754 12.9479 0.310959C 12.944 0.302732 12.9403 0.29443 12.936 0.286355C 12.932 0.278891 12.9275 0.271781 12.9231 0.26452C 12.9184 0.256623 12.9139 0.248625 12.9088 0.240906C 12.9034 0.232883 12.8974 0.225342 12.8917 0.217623C 12.8868 0.211199 12.8824 0.204598 12.8772 0.198326C 12.866 0.184641 12.8542 0.171463 12.8416 0.158945C 12.8415 0.158844 12.8415 0.158742 12.8414 0.158641C 12.8413 0.158539 12.8412 0.158488 12.8411 0.158387C 12.8285 0.145869 12.8154 0.134012 12.8017 0.122764C 12.7954 0.117609 12.7888 0.113141 12.7824 0.108316C 12.7747 0.102553 12.7671 0.0965859 12.7591 0.0912285C 12.7514 0.0860742 12.7434 0.0816055 12.7355 0.0768828C 12.7282 0.072541 12.7211 0.0679961 12.7136 0.0639844C 12.7056 0.059668 12.6973 0.0560117 12.689 0.052127C 12.6812 0.0484453 12.6736 0.0445605 12.6656 0.0412344C 12.6576 0.0379336 12.6494 0.0352422 12.6413 0.0323477C 12.6327 0.0292754 12.6243 0.026 12.6156 0.0233594C 12.6075 0.0208965 12.5992 0.0190938 12.591 0.0170371C 12.5821 0.0147773 12.5733 0.0122891 12.5642 0.0104863C 12.5547 0.00860742 12.5451 0.00746484 12.5355 0.00609375C 12.5276 0.00497656 12.5198 0.00345313 12.5118 0.00266602C 12.494 0.000939453 12.4762 0 12.4583 0L 9.75 0C 9.45085 0 9.20834 0.242506 9.20834 0.541658C 9.20834 0.840811 9.45085 1.08332 9.75 1.08332L 11.1506 1.08332L 7.74198 4.49198C 7.53045 4.70351 7.53045 5.04649 7.74198 5.25802C 7.95351 5.46955 8.29649 5.46955 8.50802 5.25802Z"/>
<path transform="translate(2593 -64)" d="M 4.49198 7.74198L 1.08334 11.1506L 1.08334 9.75C 1.08334 9.45085 0.840836 9.20834 0.541684 9.20834C 0.242506 9.20834 0 9.45085 0 9.75L 0 12.4583C 0 12.4762 0.000939453 12.494 0.00269141 12.5118C 0.00347852 12.5198 0.00497656 12.5276 0.00611914 12.5355C 0.00749023 12.5451 0.00860742 12.5547 0.0105117 12.5642C 0.0123145 12.5733 0.0148027 12.582 0.0170625 12.591C 0.0191191 12.5992 0.0209219 12.6074 0.0233848 12.6156C 0.0260254 12.6243 0.0293008 12.6328 0.032373 12.6413C 0.035293 12.6494 0.037959 12.6576 0.0412598 12.6656C 0.0445605 12.6736 0.0484707 12.6812 0.0521523 12.689C 0.0560371 12.6972 0.0596934 12.7055 0.0640098 12.7136C 0.0680215 12.7211 0.0725664 12.7282 0.0769082 12.7354C 0.0816309 12.7433 0.0860996 12.7513 0.0912539 12.7591C 0.0966113 12.7671 0.102578 12.7746 0.108342 12.7823C 0.113166 12.7888 0.117635 12.7954 0.122789 12.8016C 0.134037 12.8154 0.145895 12.8285 0.158412 12.8411C 0.158514 12.8412 0.158564 12.8413 0.158666 12.8413C 0.158768 12.8414 0.158869 12.8415 0.158971 12.8416C 0.171488 12.8541 0.184666 12.866 0.198352 12.8772C 0.204623 12.8824 0.211225 12.8868 0.217648 12.8916C 0.225367 12.8974 0.232908 12.9034 0.240932 12.9087C 0.248625 12.9139 0.256623 12.9184 0.264545 12.9231C 0.271807 12.9274 0.278891 12.932 0.286381 12.936C 0.294455 12.9403 0.302758 12.944 0.310984 12.9478C 0.318779 12.9515 0.326447 12.9554 0.33442 12.9587C 0.342418 12.962 0.350568 12.9647 0.358693 12.9676C 0.36725 12.9707 0.375705 12.9739 0.384465 12.9766C 0.39259 12.9791 0.400842 12.9809 0.409043 12.9829C 0.417955 12.9852 0.426766 12.9877 0.435855 12.9895C 0.445377 12.9914 0.454975 12.9925 0.464547 12.9939C 0.472443 12.995 0.480238 12.9965 0.488236 12.9973C 0.50601 12.999 0.523834 13 0.541658 13L 3.25 13C 3.54915 13 3.79166 12.7575 3.79166 12.4583C 3.79166 12.1592 3.54915 11.9167 3.25 11.9167L 1.84938 11.9167L 5.25802 8.50802C 5.46955 8.29649 5.46955 7.95351 5.25802 7.74198C 5.04649 7.53045 4.70351 7.53045 4.49198 7.74198Z"/>
<path transform="translate(2593 -64)" d="M 12.8917 12.7823C 12.8975 12.7746 12.9034 12.7671 12.9088 12.7591C 12.914 12.7514 12.9184 12.7434 12.9231 12.7354C 12.9275 12.7282 12.932 12.7211 12.936 12.7137C 12.9403 12.7056 12.944 12.6973 12.9479 12.689C 12.9516 12.6812 12.9554 12.6736 12.9587 12.6656C 12.962 12.6576 12.9647 12.6495 12.9676 12.6413C 12.9707 12.6328 12.974 12.6243 12.9766 12.6156C 12.9791 12.6075 12.9809 12.5992 12.9829 12.591C 12.9852 12.5821 12.9877 12.5733 12.9895 12.5642C 12.9914 12.5547 12.9925 12.5451 12.9939 12.5355C 12.995 12.5276 12.9965 12.5199 12.9973 12.5118C 12.9991 12.494 13 12.4762 13 12.4583L 13 9.75C 13 9.45085 12.7575 9.20834 12.4583 9.20834C 12.1592 9.20834 11.9167 9.45085 11.9167 9.75L 11.9167 11.1506L 8.50802 7.74198C 8.29649 7.53045 7.95351 7.53045 7.74198 7.74198C 7.53045 7.95351 7.53045 8.29649 7.74198 8.50802L 11.1506 11.9167L 9.75 11.9167C 9.45085 11.9167 9.20834 12.1592 9.20834 12.4583C 9.20834 12.7575 9.45085 13 9.75 13L 12.4583 13C 12.4762 13 12.494 12.9991 12.5118 12.9973C 12.5198 12.9965 12.5276 12.995 12.5355 12.9939C 12.5451 12.9925 12.5547 12.9914 12.5642 12.9895C 12.5733 12.9877 12.582 12.9852 12.591 12.9829C 12.5992 12.9809 12.6074 12.9791 12.6156 12.9766C 12.6243 12.974 12.6328 12.9707 12.6413 12.9676C 12.6494 12.9647 12.6576 12.962 12.6656 12.9587C 12.6736 12.9554 12.6812 12.9516 12.689 12.9479C 12.6972 12.944 12.7055 12.9403 12.7136 12.936C 12.7211 12.932 12.7281 12.9275 12.7354 12.9231C 12.7433 12.9184 12.7513 12.9139 12.759 12.9088C 12.767 12.9034 12.7746 12.8975 12.7822 12.8917C 12.7887 12.8869 12.7953 12.8824 12.8016 12.8772C 12.8152 12.8661 12.8283 12.8543 12.8407 12.8419C 12.8409 12.8417 12.8411 12.8415 12.8413 12.8414C 12.8415 12.8412 12.8417 12.841 12.8418 12.8408C 12.8542 12.8283 12.866 12.8153 12.8772 12.8017C 12.8824 12.7954 12.8869 12.7887 12.8917 12.7823Z"/>
<path transform="translate(2593 -64)" d="M 1.84938 1.08334L 3.25 1.08334C 3.54915 1.08334 3.79166 0.840836 3.79166 0.541684C 3.79166 0.242506 3.54915 0 3.25 0L 0.541658 0C 0.523834 0 0.505959 0.000939453 0.488211 0.00269141C 0.480188 0.00347852 0.472418 0.00497656 0.464521 0.00611914C 0.454949 0.00749023 0.445352 0.00860742 0.43583 0.0104863C 0.42674 0.0122891 0.41793 0.0147773 0.409018 0.0170371C 0.400816 0.0190938 0.392564 0.0208965 0.384439 0.0233594C 0.37568 0.026 0.367225 0.0293008 0.358668 0.032373C 0.350568 0.035293 0.342393 0.037959 0.334395 0.0412598C 0.326396 0.0445859 0.318703 0.0484707 0.310908 0.0521777C 0.302707 0.0560371 0.294404 0.0596934 0.286355 0.0640098C 0.278865 0.0680215 0.271756 0.0725918 0.264469 0.0769336C 0.256598 0.0816309 0.2486 0.0860742 0.240906 0.0912285C 0.232857 0.0966113 0.225291 0.102604 0.217547 0.108393C 0.211148 0.113191 0.204572 0.117635 0.198352 0.122764C 0.170752 0.145412 0.145412 0.170752 0.122764 0.198352C 0.117635 0.204572 0.113191 0.211148 0.108393 0.217572C 0.102604 0.225316 0.0966113 0.232883 0.0912285 0.240932C 0.0860742 0.248625 0.0816309 0.256598 0.0769082 0.264494C 0.0725664 0.271756 0.0679961 0.278891 0.0639844 0.286381C 0.059668 0.29443 0.0560371 0.302707 0.0521523 0.310934C 0.0484707 0.318729 0.0445605 0.326422 0.0412344 0.33442C 0.0379336 0.342418 0.0352676 0.350568 0.0323477 0.358693C 0.0292754 0.36725 0.026 0.375705 0.023334 0.384465C 0.0208711 0.39259 0.0190684 0.400842 0.0170117 0.409043C 0.014752 0.417955 0.0122637 0.426766 0.0104609 0.435855C 0.00858203 0.445377 0.00746484 0.454975 0.00609375 0.464547C 0.00497656 0.472443 0.00345313 0.480238 0.00266602 0.488236C 0.000939453 0.505984 0 0.523809 0 0.541658L 0 3.25C 0 3.54915 0.242506 3.79166 0.541658 3.79166C 0.840811 3.79166 1.08332 3.54915 1.08332 3.25L 1.08332 1.84938L 4.49196 5.25802C 4.70349 5.46955 5.04646 5.46955 5.25799 5.25802C 5.46952 5.04649 5.46952 4.70351 5.25799 4.49198L 1.84938 1.08334Z"/>
</g>
</svg>
