<svg width="11" height="11" viewBox="0 0 11 11" version="1.1" xmlns="http://www.w3.org/2000/svg" xmlns:xlink="http://www.w3.org/1999/xlink">
<g transform="translate(-2452 -945)">
<path transform="translate(2452 945)" d="M 3.18346 0L 7.79399 0C 9.55038 0 10.9774 1.43 10.9774 3.19L 10.9774 7.81C 10.9774 8.65604 10.642 9.46743 10.045 10.0657C 9.44802 10.6639 8.63829 11 7.79399 11L 3.18346 11C 1.42707 11 0 9.57 0 7.81L 0 3.19C 2.43748e-16 2.34396 0.335399 1.53257 0.932414 0.934329C 1.52943 0.336088 2.33915 1.09912e-15 3.18346 0ZM 3.07368 1.1C 2.54963 1.1 2.04704 1.30861 1.67648 1.67993C 1.30592 2.05125 1.09774 2.55487 1.09774 3.08L 1.09774 7.92C 1.09774 9.0145 1.98143 9.9 3.07368 9.9L 7.90376 9.9C 8.42781 9.9 8.9304 9.69139 9.30096 9.32007C 9.67152 8.94875 9.8797 8.44513 9.8797 7.92L 9.8797 3.08C 9.8797 1.9855 8.99601 1.1 7.90376 1.1L 3.07368 1.1ZM 8.3703 1.925C 8.55226 1.925 8.72677 1.99743 8.85544 2.12636C 8.98411 2.2553 9.05639 2.43016 9.05639 2.6125C 9.05639 2.79484 8.98411 2.9697 8.85544 3.09864C 8.72677 3.22757 8.55226 3.3 8.3703 3.3C 8.18834 3.3 8.01383 3.22757 7.88516 3.09864C 7.75649 2.9697 7.68421 2.79484 7.68421 2.6125C 7.68421 2.43016 7.75649 2.2553 7.88516 2.12636C 8.01383 1.99743 8.18834 1.925 8.3703 1.925ZM 5.48872 2.75C 6.21657 2.75 6.91461 3.03973 7.42928 3.55546C 7.94395 4.07118 8.23308 4.77065 8.23308 5.5C 8.23308 6.22935 7.94395 6.92882 7.42928 7.44454C 6.91461 7.96027 6.21657 8.25 5.48872 8.25C 4.76087 8.25 4.06283 7.96027 3.54817 7.44454C 3.0335 6.92882 2.74436 6.22935 2.74436 5.5C 2.74436 4.77065 3.0335 4.07118 3.54817 3.55546C 4.06283 3.03973 4.76087 2.75 5.48872 2.75ZM 5.48872 3.85C 5.05201 3.85 4.63319 4.02384 4.32439 4.33327C 4.01559 4.64271 3.84211 5.06239 3.84211 5.5C 3.84211 5.93761 4.01559 6.35729 4.32439 6.66673C 4.63319 6.97616 5.05201 7.15 5.48872 7.15C 5.92543 7.15 6.34426 6.97616 6.65306 6.66673C 6.96186 6.35729 7.13534 5.93761 7.13534 5.5C 7.13534 5.06239 6.96186 4.64271 6.65306 4.33327C 6.34426 4.02384 5.92543 3.85 5.48872 3.85Z"/>
</g>
</svg>
