<svg width="10" height="11" viewBox="0 0 10 11" version="1.1" xmlns="http://www.w3.org/2000/svg" xmlns:xlink="http://www.w3.org/1999/xlink">
<g transform="translate(-2484 -945)">
<path transform="translate(2484 945.55)" d="M 9.8797 9.9L 7.68421 9.9L 7.68421 6.1875C 7.68421 5.6045 7.03105 5.1205 6.44925 5.1205C 5.86744 5.1205 5.48872 5.6045 5.48872 6.1875L 5.48872 9.9L 3.29323 9.9L 3.29323 3.3L 5.48872 3.3L 5.48872 4.4C 5.85098 3.8115 6.78406 3.432 7.40977 3.432C 8.78196 3.432 9.8797 4.554 9.8797 5.9125L 9.8797 9.9ZM 2.19549 9.9L 0 9.9L 0 3.3L 2.19549 3.3L 2.19549 9.9ZM 1.09774 0C 1.38888 2.44249e-16 1.6681 0.115892 1.87397 0.322182C 2.07983 0.528472 2.19549 0.808262 2.19549 1.1C 2.19549 1.39174 2.07983 1.67153 1.87397 1.87782C 1.6681 2.08411 1.38888 2.2 1.09774 2.2C 0.806605 2.2 0.527389 2.08411 0.321522 1.87782C 0.115655 1.67153 2.43748e-16 1.39174 0 1.1C 0 0.808262 0.115655 0.528472 0.321522 0.322182C 0.527389 0.115892 0.806605 2.44249e-16 1.09774 0Z"/>
</g>
</svg>
