<svg width="17" height="20" viewBox="0 0 17 20" version="1.1" xmlns="http://www.w3.org/2000/svg" xmlns:xlink="http://www.w3.org/1999/xlink">
    <g transform="matrix(1.5 0 0 1.5 -5692.5 -4752)">
            <path fill="#03A9F4" transform="translate(3795 3168)"  d="M 11 5.77449C 11 8.58302 9.0802 10.9293 6.54611 11.4437L 6.54611 13L 2.5167 10.5743L 6.54611 8.14851L 6.54611 9.57327C 8.11582 9.096 9.26717 7.57421 9.26717 5.77443C 9.26717 3.59356 7.5772 1.81925 5.5 1.81925C 3.4228 1.81925 1.73283 3.59356 1.73283 5.77443C 1.73283 6.36182 1.85228 6.92672 2.08794 7.45353L 0.519502 8.22698C 0.174785 7.45638 0 6.63126 0 5.77449C 5.7761e-05 2.59045 2.46738 0 5.50006 0C 8.53274 0 11 2.59045 11 5.77449Z"/>
    </g>
</svg>
