<svg width="43" height="85" viewBox="0 0 43 85" version="1.1" xmlns="http://www.w3.org/2000/svg" xmlns:xlink="http://www.w3.org/1999/xlink">
    <g transform="translate(869 -2583)">
        <path transform="matrix(-0.707107 -0.707107 0.707107 -0.707107 -826.574 2667.85)" d="M 0 0.5C 0 0.223858 0.223858 0 0.5 0L 59.5 0C 59.7761 0 60 0.223858 60 0.5C 60 0.776142 59.7761 1 59.5 1L 0.5 1C 0.223858 1 0 0.776142 0 0.5Z"/>
        <path transform="matrix(-0.707107 -0.707107 0.707107 -0.707107 -826.574 2667.85)" d="M 59.5 0C 59.7761 0 60 0.223858 60 0.5L 60 59.5C 60 59.7761 59.7761 60 59.5 60C 59.2239 60 59 59.7761 59 59.5L 59 0.5C 59 0.223858 59.2239 1.69088e-17 59.5 0Z"/>
    </g>
</svg>
