<svg width="13" height="10" viewBox="0 0 13 10" version="1.1" xmlns="http://www.w3.org/2000/svg" xmlns:xlink="http://www.w3.org/1999/xlink">
<g transform="translate(762 63)">
<path transform="translate(-762 -63)" d="M 3.82353 0L 3.82353 2.85714L 13 2.85714L 13 0L 3.82353 0ZM 3.82353 10L 13 10L 13 7.14286L 3.82353 7.14286L 3.82353 10ZM 3.82353 6.42857L 13 6.42857L 13 3.57143L 3.82353 3.57143L 3.82353 6.42857ZM 0 2.85714L 3.05882 2.85714L 3.05882 0L 0 0L 0 2.85714ZM 0 10L 3.05882 10L 3.05882 7.14286L 0 7.14286L 0 10ZM 0 6.42857L 3.05882 6.42857L 3.05882 3.57143L 0 3.57143L 0 6.42857Z"/>
</g>
</svg>
